<svg width="20" height="20" viewBox="0 0 20 20" fill="none" xmlns="http://www.w3.org/2000/svg">
  <path
    d="M7 3H17C17.5304 3 18.0391 3.21071 18.4142 3.58579C18.7893 3.96086 19 4.46957 19 5V15M17 17H3C2.46957 17 1.96086 16.7893 1.58579 16.4142C1.21071 16.0391 1 15.5304 1 15V5C1 4.46957 1.21071 3.96086 1.58579 3.58579C1.96086 3.21071 2.46957 3 3 3"
    stroke-width="2" stroke-linecap="round" stroke-linejoin="round" />
  <path
    d="M5 13V9C5 8.46957 5.21071 7.96086 5.58579 7.56579C5.96086 7.21071 6.46957 7 7 7M9 9V13M5 11H9M15 7V11M14.115 10.131C14.445 10.28 14.71 10.543 14.862 10.871M1 1L19 19"
    stroke-width="2" stroke-linecap="round" stroke-linejoin="round" />
</svg>