<svg width="15" height="16" viewBox="0 0 15 16" xmlns="http://www.w3.org/2000/svg">
  <path
    d="M14.7212 9.38814C14.3174 10.7062 13.5082 11.8634 12.4087 12.695C11.4434 13.4216 10.2947 13.8647 9.09149 13.9746C7.88831 14.0846 6.6783 13.857 5.59727 13.3175C4.51624 12.7779 3.60699 11.9478 2.97156 10.9202C2.33613 9.89257 1.99968 8.70821 1.99997 7.50001C1.99563 6.0898 2.45407 4.7171 3.30497 3.59251C4.13656 2.49301 5.29374 1.68379 6.61184 1.28001C6.69872 1.25326 6.79124 1.2507 6.87946 1.27261C6.96768 1.29451 7.04826 1.34004 7.11254 1.40432C7.17681 1.4686 7.22235 1.54918 7.24425 1.6374C7.26616 1.72562 7.26359 1.81814 7.23684 1.90501C6.94862 2.85841 6.92445 3.87214 7.16692 4.83818C7.40939 5.80422 7.9094 6.68639 8.61369 7.39067C9.31797 8.09496 10.2001 8.59497 11.1662 8.83744C12.1322 9.0799 13.146 9.05574 14.0993 8.76751C14.1862 8.74076 14.2787 8.7382 14.367 8.76011C14.4552 8.78201 14.5358 8.82754 14.6 8.89182C14.6643 8.9561 14.7099 9.03668 14.7318 9.1249C14.7537 9.21312 14.7511 9.30564 14.7243 9.39251L14.7212 9.38814Z" />
</svg>