<svg width="29" height="30" viewBox="0 0 29 30" fill="none" xmlns="http://www.w3.org/2000/svg">
<path d="M9.00316 1.05469L12.0834 8.94926C12.1829 9.18328 12.3207 9.29086 12.5078 9.35807C12.6953 9.42545 12.9391 9.42838 13.1558 9.36803C13.3724 9.30768 13.5489 9.18369 13.6243 9.08004C13.6997 8.97633 13.72 8.9298 13.6539 8.77301L13.6512 8.76645L10.6389 1.05469H9.00316ZM14.5208 8.09432L14.631 8.37615L14.6257 8.36309C14.8218 8.82814 14.7328 9.34875 14.4773 9.7002C14.2219 10.0515 13.8461 10.2705 13.4389 10.384C13.0317 10.4975 12.5803 10.505 12.151 10.3506C11.7217 10.1962 11.3216 9.85565 11.1114 9.359L11.1085 9.35209L11.0055 9.08842C9.17098 10.2488 8.51707 11.5509 8.93326 13.1249C9.00592 13.3992 9.13377 13.8494 9.28272 14.4216C13.6403 14.1126 17.4826 13.0229 20.9902 11.3982C20.3869 10.5857 19.6719 9.88471 18.7501 9.37494C17.5486 8.71049 15.9579 8.19387 14.5209 8.09426L14.5208 8.09432ZM21.5847 12.2849C17.9814 13.973 14.016 15.1196 9.5393 15.4605C9.65824 15.9693 9.77836 16.5316 9.88793 17.1301C15.1375 16.5393 19.4412 15.5938 22.647 14.2727C22.3105 13.586 21.9677 12.9139 21.5847 12.2849ZM23.1105 15.224C19.7652 16.6169 15.3767 17.5729 10.0599 18.1726C10.5877 21.7631 10.5243 26.1769 7.5 28.125C8.45332 28.125 9.36867 28.1161 10.2496 28.0986C11.2949 26.6013 12.0818 24.2184 12.1293 23.051C12.6138 24.035 12.3224 26.5268 11.8152 28.0569C11.9754 28.0515 12.1337 28.0456 12.2914 28.0395C12.9842 27.3131 12.9783 26.3619 13.1539 25.269C13.3487 26.1432 13.564 27.2006 13.7108 27.9734C14.3713 27.9373 15.0088 27.8949 15.6213 27.8455C16.5811 26.6527 16.8899 24.939 16.7129 22.8369C16.9605 24.542 17.2471 26.4778 17.4086 27.6738C17.953 27.6131 18.4962 27.5425 19.0379 27.4621C19.3332 26.3613 18.7977 24.6236 18.9165 23.3875C19.5683 25.9136 20.2201 26.6365 20.8718 27.14C21.1803 27.0765 21.4876 27.0077 21.7937 26.9334C21.5183 26.116 21.8858 25.6152 21.8628 24.5905C22.1937 25.7031 22.7197 26.17 23.2941 26.5133C23.6753 26.3902 24.0359 26.2592 24.3776 26.1209C23.7602 25.7359 23.7851 24.5755 23.6522 23.6057C24.0011 24.8773 24.4968 25.5052 25.0634 25.8214C26.7698 25.0129 27.9163 23.9737 28.6023 22.6775C28.0704 22.4537 27.5081 21.9156 26.9577 21.5002C27.732 21.9383 28.3454 22.1221 28.8544 22.1406C28.9327 21.9513 29.0022 21.7583 29.0625 21.5624C25.7621 20.4182 24.3709 17.8114 23.1105 15.2239L23.1105 15.224Z" fill="#D4FCC3"/>
</svg>
