<svg width="2" height="12" viewBox="0 0 2 12" xmlns="http://www.w3.org/2000/svg">
  <path
    d="M5.38895e-07 1.75C5.38895e-07 1.55222 0.0586496 1.35888 0.168531 1.19443C0.278412 1.02998 0.434591 0.901809 0.617317 0.826121C0.800043 0.750433 1.00111 0.73063 1.19509 0.769215C1.38907 0.8078 1.56725 0.903041 1.70711 1.04289C1.84696 1.18275 1.9422 1.36093 1.98079 1.55491C2.01937 1.74889 1.99957 1.94996 1.92388 2.13268C1.84819 2.31541 1.72002 2.47159 1.55557 2.58147C1.39112 2.69135 1.19778 2.75 1 2.75C0.734784 2.75 0.48043 2.64464 0.292894 2.45711C0.105358 2.26957 5.38895e-07 2.01522 5.38895e-07 1.75ZM1 5C0.802219 5 0.60888 5.05865 0.44443 5.16853C0.279981 5.27841 0.151809 5.43459 0.0761209 5.61732C0.000433281 5.80004 -0.0193701 6.00111 0.0192152 6.19509C0.0578004 6.38907 0.153041 6.56725 0.292894 6.70711C0.432746 6.84696 0.610929 6.9422 0.80491 6.98079C0.998891 7.01937 1.19996 6.99957 1.38268 6.92388C1.56541 6.84819 1.72159 6.72002 1.83147 6.55557C1.94135 6.39112 2 6.19778 2 6C2 5.73478 1.89464 5.48043 1.70711 5.29289C1.51957 5.10536 1.26522 5 1 5ZM1 9.25C0.802219 9.25 0.60888 9.30865 0.44443 9.41853C0.279981 9.52841 0.151809 9.68459 0.0761209 9.86732C0.000433281 10.05 -0.0193701 10.2511 0.0192152 10.4451C0.0578004 10.6391 0.153041 10.8173 0.292894 10.9571C0.432746 11.097 0.610929 11.1922 0.80491 11.2308C0.998891 11.2694 1.19996 11.2496 1.38268 11.1739C1.56541 11.0982 1.72159 10.97 1.83147 10.8056C1.94135 10.6411 2 10.4478 2 10.25C2 9.98478 1.89464 9.73043 1.70711 9.54289C1.51957 9.35536 1.26522 9.25 1 9.25Z" />
</svg>